<?xml version="1.0" encoding="utf-8"?>
<!-- Generator: Adobe Illustrator 20.1.0, SVG Export Plug-In . SVG Version: 6.00 Build 0)  -->
<svg version="1.1" id="Calque_1" xmlns="http://www.w3.org/2000/svg" xmlns:xlink="http://www.w3.org/1999/xlink" x="0px" y="0px"
	 viewBox="0 0 64 64" style="enable-background:new 0 0 64 64;" xml:space="preserve" width="32" height="32">
<style type="text/css">
	.st0{fill:none;stroke:#FFFFFF;stroke-width:2;stroke-linecap:round;stroke-miterlimit:10;}
</style>
<title>User</title>
<desc>A line styled icon from Orion Icon Library.</desc>
<path class="st0" d="M52.1,34.5c0,4.1-2.3,7.8-4.7,10v2.2c0,1.4,0.7,3.5,7.4,4.7c3.9,0.7,7,3.6,8.1,7.4H22.3
	c0.6-3.8,3.6-6.8,7.4-7.4c6.8-1.2,8.1-3.4,8.1-4.7v-2.2c-2.4-2.2-4.7-5.8-4.7-10V28c0-7,5-9.8,9.5-9.8s9.5,2.7,9.5,9.8V34.5z"/>
<path class="st0" d="M51.6,50.6c-1-1.8-2.5-3.3-4.3-4.3"/>
<path class="st0" d="M26.3,52.8H11.8c0.6-3.8,3.6-6.8,7.4-7.4c6.8-1.2,8.1-3.4,8.1-4.7v-2.2c-2.4-2.2-4.7-5.8-4.7-10V22
	c0-7,5-9.8,9.5-9.8c3.6,0,7.6,1.8,9,6.2"/>
<path class="st0" d="M16.1,46.4H1.6C2.2,42.6,5.2,39.6,9,39c6.8-1.2,8.1-3.4,8.1-4.7V32c-2.4-2.2-4.7-5.8-4.7-10v-6.5
	c0-7,5-9.8,9.5-9.8c3.6,0,7.6,1.8,9,6.2"/>
</svg>
