<?xml version="1.0" encoding="utf-8"?>
<!-- Generator: Adobe Illustrator 20.1.0, SVG Export Plug-In . SVG Version: 6.00 Build 0)  -->
<svg version="1.1" id="Calque_1" xmlns="http://www.w3.org/2000/svg" xmlns:xlink="http://www.w3.org/1999/xlink" x="0px" y="0px"
	 viewBox="0 0 64 64" style="enable-background:new 0 0 64 64;" xml:space="preserve"  width="32" height="32">
<style type="text/css">
	.st0{fill:none;stroke:#FFFFFF;stroke-width:2;stroke-linecap:square;stroke-miterlimit:10;}
</style>
<title>Audio File</title>
<desc>A line styled icon from Orion Icon Library.</desc>
<path class="st0" d="M16.3,61"/>
<path class="st0" d="M16.3,14.6"/>
<path class="st0" d="M34.1,43.2h-3.6c-2,0-3.6,1.6-3.6,3.6s1.6,3.6,3.6,3.6s3.6-1.6,3.6-3.6V27.1l14.3-3.6v19.6c0,2-1.6,3.6-3.6,3.6
	s-3.6-1.6-3.6-3.6s1.6-3.6,3.6-3.6h3.6"/>
<path class="st0" d="M16.3,14.6h46.4V61H16.3V14.6z"/>
<path class="st0" d="M9.4,55.7"/>
<path class="st0" d="M9.4,9.3"/>
<path class="st0" d="M9.4,55.7V9.3h46.4"/>
<path class="st0" d="M2,50.3"/>
<path class="st0" d="M2.9,3.9"/>
<path class="st0" d="M2.9,50.3V3.9h46.4"/>
<line class="st0" x1="2.9" y1="50.3" x2="9.4" y2="50.3"/>
<line class="st0" x1="9.4" y1="55.7" x2="16.3" y2="55.7"/>
<line class="st0" x1="49.3" y1="3.9" x2="49.3" y2="9.3"/>
<line class="st0" x1="55.8" y1="9.3" x2="55.8" y2="14.6"/>
</svg>
