<?xml version="1.0" encoding="utf-8"?>
<!-- Generator: Adobe Illustrator 20.1.0, SVG Export Plug-In . SVG Version: 6.00 Build 0)  -->
<svg version="1.1" id="Calque_1" xmlns="http://www.w3.org/2000/svg" xmlns:xlink="http://www.w3.org/1999/xlink" x="0px" y="0px"
	 viewBox="0 0 150 150" style="enable-background:new 0 0 150 150;" xml:space="preserve">
<style type="text/css">
	.st0{fill:none;stroke:#000000;stroke-miterlimit:10;}
</style>
<path class="st0" d="M23.8,18.2c7.7-4.8,16.9-6.3,26.4-5.5C67.4,14.2,84,20.1,99.1,28c14.4,7.6,29.5,16.9,40.1,29.5
	c4.9,5.8,8.6,13,8.6,20.6c0.1,8.4-4.2,16.4-10.1,22.5c-8.4,8.8-20,15.4-30.8,20.8c-12.9,6.4-26.5,11.5-40.7,14.2
	c-13.4,2.5-29.4,4.2-41.8-2.4C13.1,127,7.7,115.8,4.7,103.8c-4-15.9-4.5-32.6-1.5-48.7c2-10.8,5.6-21.9,13-30.3
	C18.5,22.1,21,20,23.8,18.2z"/>
</svg>
