<svg id="Calque_3" data-name="Calque 3" xmlns="http://www.w3.org/2000/svg" xmlns:xlink="http://www.w3.org/1999/xlink" viewBox="0 0 468.17 413.24"><defs><style>.cls-1{fill:url(#Dégradé_sans_nom_199);}.cls-2{fill:url(#Dégradé_sans_nom_199-2);}.cls-3{fill:url(#Dégradé_sans_nom_199-3);}.cls-4{fill:url(#Dégradé_sans_nom_199-4);}.cls-5{fill:url(#Dégradé_sans_nom_199-5);}.cls-6{fill:url(#Dégradé_sans_nom_199-6);}.cls-7{fill:url(#Dégradé_sans_nom_199-7);}.cls-8{fill:url(#Dégradé_sans_nom_199-8);}.cls-9{fill:url(#Dégradé_sans_nom_199-9);}.cls-10{fill:url(#Dégradé_sans_nom_199-10);}.cls-11{fill:url(#Dégradé_sans_nom_199-11);}.cls-12{fill:url(#Dégradé_sans_nom_199-12);}.cls-13{fill:url(#Dégradé_sans_nom_199-13);}.cls-14{fill:url(#Dégradé_sans_nom_199-14);}.cls-15{fill:url(#Dégradé_sans_nom_199-15);}</style><linearGradient id="Dégradé_sans_nom_199" x1="367" y1="200.48" x2="367" y2="43.73" gradientUnits="userSpaceOnUse"><stop offset="0" stop-color="#ffbd3f"/><stop offset="0.14" stop-color="#ffab35"/><stop offset="0.73" stop-color="#ff620f"/><stop offset="1" stop-color="#ff4500"/></linearGradient><linearGradient id="Dégradé_sans_nom_199-2" x1="367.08" y1="456.97" x2="367.08" y2="348.91" xlink:href="#Dégradé_sans_nom_199"/><linearGradient id="Dégradé_sans_nom_199-3" x1="367.08" y1="370.29" x2="367.08" y2="262.23" xlink:href="#Dégradé_sans_nom_199"/><linearGradient id="Dégradé_sans_nom_199-4" x1="367.08" y1="284.79" x2="367.08" y2="176.73" xlink:href="#Dégradé_sans_nom_199"/><linearGradient id="Dégradé_sans_nom_199-5" x1="216.12" y1="413.24" x2="216.12" y2="0.04" xlink:href="#Dégradé_sans_nom_199"/><linearGradient id="Dégradé_sans_nom_199-6" x1="194.87" y1="387.13" x2="194.87" y2="26.15" xlink:href="#Dégradé_sans_nom_199"/><linearGradient id="Dégradé_sans_nom_199-7" x1="173.63" y1="357.87" x2="173.63" y2="55.42" xlink:href="#Dégradé_sans_nom_199"/><linearGradient id="Dégradé_sans_nom_199-8" x1="152.38" y1="334.91" x2="152.38" y2="78.37" xlink:href="#Dégradé_sans_nom_199"/><linearGradient id="Dégradé_sans_nom_199-9" x1="131.14" y1="361.01" x2="131.14" y2="52.27" xlink:href="#Dégradé_sans_nom_199"/><linearGradient id="Dégradé_sans_nom_199-10" x1="109.89" y1="377.21" x2="109.89" y2="36.07" xlink:href="#Dégradé_sans_nom_199"/><linearGradient id="Dégradé_sans_nom_199-11" x1="88.65" y1="319.03" x2="88.65" y2="94.21" xlink:href="#Dégradé_sans_nom_199"/><linearGradient id="Dégradé_sans_nom_199-12" x1="67.4" y1="342.57" x2="67.4" y2="70.82" xlink:href="#Dégradé_sans_nom_199"/><linearGradient id="Dégradé_sans_nom_199-13" x1="46.15" y1="309.77" x2="46.15" y2="103.54" xlink:href="#Dégradé_sans_nom_199"/><linearGradient id="Dégradé_sans_nom_199-14" x1="24.91" y1="296.57" x2="24.91" y2="116.62" xlink:href="#Dégradé_sans_nom_199"/><linearGradient id="Dégradé_sans_nom_199-15" x1="5.13" y1="256.82" x2="5.13" y2="156.75" xlink:href="#Dégradé_sans_nom_199"/></defs><title>logo</title><path class="cls-1" d="M487,149.81V94.4c0-28-107.24-50.67-239.41-50.67H247V200.48h.59C379.76,200.48,487,177.79,487,149.81Z" transform="translate(-19 -43.73)"/><path class="cls-2" d="M248.3,397.6H247V457h.59C379.76,457,487,434.29,487,406.31V350.89a11.06,11.06,0,0,0,.14-2C482.21,376,377.34,397.6,248.3,397.6Z" transform="translate(-19 -43.73)"/><path class="cls-3" d="M248.3,310.91H247v59.38h.59C379.76,370.29,487,347.6,487,319.62V264.2a11.06,11.06,0,0,0,.14-2C482.21,289.29,377.34,310.91,248.3,310.91Z" transform="translate(-19 -43.73)"/><path class="cls-4" d="M487,234.12V178.71a11.06,11.06,0,0,0,.14-2c-4.92,27.06-109.79,48.69-238.83,48.69H247v59.38h.59C379.76,284.79,487,262.1,487,234.12Z" transform="translate(-19 -43.73)"/><ellipse class="cls-5" cx="216.12" cy="206.64" rx="6.59" ry="206.6"/><ellipse class="cls-6" cx="194.87" cy="206.64" rx="6.59" ry="180.49"/><ellipse class="cls-7" cx="173.63" cy="206.64" rx="6.59" ry="151.23"/><ellipse class="cls-8" cx="152.38" cy="206.64" rx="6.59" ry="128.27"/><ellipse class="cls-9" cx="131.14" cy="206.64" rx="6.59" ry="154.37"/><ellipse class="cls-10" cx="109.89" cy="206.64" rx="6.59" ry="170.57"/><ellipse class="cls-11" cx="88.65" cy="206.62" rx="6.59" ry="112.41"/><ellipse class="cls-12" cx="67.4" cy="206.7" rx="6.59" ry="135.88"/><ellipse class="cls-13" cx="46.15" cy="206.66" rx="6.59" ry="103.12"/><ellipse class="cls-14" cx="24.91" cy="206.6" rx="6.59" ry="89.97"/><ellipse class="cls-15" cx="5.13" cy="206.78" rx="5.13" ry="50.04"/></svg>